<svg xmlns="http://www.w3.org/2000/svg" viewBox="0 0 209.33 139.17"><defs><style>.cls-1{fill:#f6c29c;}</style></defs><title>blob-peach</title><g id="Layer_2" data-name="Layer 2"><g id="Layer_2-2" data-name="Layer 2"><path class="cls-1" d="M22,18.81a10.57,10.57,0,0,1,3.32-1.06c1.44-.43,2.76-1.09,4.17-1.62a88.88,88.88,0,0,1,9.24-2.69c11-2.82,21.77-6.32,32.84-8.73C78.23,3.25,84.93.92,91.79.66,99.6.37,107.36.05,115.18,0c4.53,0,9,.75,13.53.7a85.16,85.16,0,0,1,13.72,1.06c4.66.69,9.16,2.13,13.81,2.81a61,61,0,0,1,11.42,2.84,28.81,28.81,0,0,1,7.2,3.3c1.7,1.26,2.77,3.17,4.17,4.74,2.19,2.46,4.1,5.39,6,8.06,2.09,2.88,4.4,5.5,6.7,8.21s4.07,5.49,6.12,8.26c1.91,2.56,4.09,4.9,5.84,7.57,2.23,3.41,4.48,7,5.36,11a25.27,25.27,0,0,1,.13,5.22,57.33,57.33,0,0,1,0,7.06c-.37,2.93-1.8,6.19-2.77,9a134.86,134.86,0,0,1-7.13,16.08c-2.06,4.1-4.19,8.11-6.33,12.16a28.09,28.09,0,0,1-5.84,7.92c-8.76,7.92-20,10.42-30.87,14.21-15.33,5.33-31.39,7.36-47.53,8.62a95.37,95.37,0,0,1-25.63-1.17c-11.4-2.14-22.21-7.8-31.52-14.65C44.64,117.9,38,112.4,31.05,107.4c-5.78-4.15-11.48-8.66-16.86-13.31C8.24,89,3.52,83.52.5,76.21c-1.15-2.78.05-4.9,0-7.74,0-1.16-.05-2.34,0-3.5.06-1.65.73-2.9.69-4.55Z"/></g></g></svg>