<svg xmlns="http://www.w3.org/2000/svg" viewBox="0 0 231.29 143.11"><defs><style>.cls-1{fill:#a490a2;}</style></defs><title>blob-purple</title><g id="Layer_2" data-name="Layer 2"><g id="Layer_2-2" data-name="Layer 2"><path class="cls-1" d="M213.22,109.63c-1,.84-2.32,1-3.54,1.52-1.54.62-2.91,1.46-4.4,2.18-3.16,1.53-6.57,2.72-9.88,3.93-11.77,4.31-23.27,9.26-35.2,13.18-7.18,2.35-14.29,5.59-21.84,6.79-8.59,1.36-17.13,2.74-25.76,3.87-5,.65-10,.48-15,1.17a107,107,0,0,1-15.29.83c-5.22,0-10.37-.87-15.59-.9a75.08,75.08,0,0,1-13-1.25,33.57,33.57,0,0,1-8.37-2.29c-2-1-3.45-2.76-5.18-4.12a104.19,104.19,0,0,1-7.67-7.18c-2.66-2.57-5.54-4.85-8.42-7.22s-5.18-4.89-7.78-7.36c-2.42-2.28-5.12-4.3-7.39-6.71C6,103,3.1,99.78,1.63,95.9a22.37,22.37,0,0,1-.79-5.16,52,52,0,0,1-.84-7c.05-3,1.23-6.39,2-9.32A129.08,129.08,0,0,1,7.85,57.48c1.77-4.35,3.63-8.62,5.49-12.93a28.47,28.47,0,0,1,5.48-8.66c8.7-9.07,20.78-13.09,32.34-18.34,16.28-7.4,33.78-11.62,51.45-15.08A117.77,117.77,0,0,1,131.07.1c12.87.57,25.5,4.7,36.63,10.21C176,14.42,184,19,192.3,23c6.89,3.32,13.75,7,20.26,10.89,7.21,4.29,13.09,9,17.33,15.86,1.62,2.6.56,4.88.93,7.69.15,1.15.34,2.31.45,3.47.14,1.65-.44,3-.2,4.61Z"/></g></g></svg>