<svg xmlns="http://www.w3.org/2000/svg" viewBox="0 0 130.69 148.18"><defs><style>.cls-1{fill:#1d1d1d;}</style></defs><title>dots_1</title><g id="Layer_2" data-name="Layer 2"><g id="Layer_2-2" data-name="Layer 2"><path class="cls-1" d="M101.52,87.91c1.32-.25,1.92-2.17,1.83-3.43,0-.62-.1-1.23-.16-1.83a3.08,3.08,0,0,0,0-.43c0-.43-.32-.57-.66-.32a3.65,3.65,0,0,0-1,.88,15.34,15.34,0,0,0-1.28,2.44C99.81,86.48,100.12,88.18,101.52,87.91Z"/><path class="cls-1" d="M128.6,70.51c-.11.11-.17.3-.29.37-.78.39-.72,1.16-.89,1.81,0,.73.45,1,1.08.76A2.61,2.61,0,0,0,130,71.73c.23-.64.44-1.29.67-1.94.06-.18.14-.38-.08-.47s-1.06.43-1.35.64A6.2,6.2,0,0,0,128.6,70.51Z"/><path class="cls-1" d="M107.57,77.58a1.76,1.76,0,0,0,1-.75,23.86,23.86,0,0,0,1-2.85c0-.15-.07-.34-.15-.68-.55.37-1,.63-1.38.93a3.52,3.52,0,0,0-1.43,2.33C106.47,77.13,107.05,77.75,107.57,77.58Z"/><path class="cls-1" d="M83,74.81a.91.91,0,0,0,.41,1,1.05,1.05,0,0,0,1.13-.23c.29-.41.49-.88.78-1.28.41-.58.27-1.28.48-1.91,0-.11-.17-.3-.27-.47a3.58,3.58,0,0,0-.44.25,7.38,7.38,0,0,1-.68.46A2.9,2.9,0,0,0,83,74.81Z"/><path class="cls-1" d="M65,77.06c.75-2.07.86-2.14.55-2.52-.51.28-1,.56-1.48.79a2.89,2.89,0,0,0-1.16,1.4,1.63,1.63,0,0,0-.14.8C62.74,78.79,64.6,78,65,77.06Z"/><path class="cls-1" d="M62.25,136.58A8.19,8.19,0,0,0,63.8,134c-.23-.07-.34-.15-.44-.14-2.58.3-3.13,2.3-2.38,2.87A1.05,1.05,0,0,0,62.25,136.58Z"/><path class="cls-1" d="M65.14,106.33A4.54,4.54,0,0,0,67,104c.23-.48-.41-.48-1.16-.61-.45.4-1,.81-1.44,1.28a2.11,2.11,0,0,0-.38.73,1,1,0,0,0,.2,1A.87.87,0,0,0,65.14,106.33Z"/><path class="cls-1" d="M78.19,110.3a5.4,5.4,0,0,1-.89.64,1.94,1.94,0,0,0-1,1.45.76.76,0,0,0,.3.9c.32.24.61,0,.91-.1.12-.51.74-.53.94-.92.31-.63.53-1.31.8-2A1,1,0,0,0,78.19,110.3Z"/><path class="cls-1" d="M111.9,91c-.05.23-.28.41-.41.63a7.35,7.35,0,0,0-.6,1c-.29.69-.17,1,.46,1.55,1.3-.47,1.54-1.9,1.89-3.58l-.64-.07C112.23,90.45,112,90.54,111.9,91Z"/><path class="cls-1" d="M59.5,123.25a1,1,0,0,0,.94-.31,2.92,2.92,0,0,0,.21-.28,3.51,3.51,0,0,0,.76-2.58c-.62-.21-.82.21-1.38.5C58.85,121.2,58.87,123.08,59.5,123.25Z"/><path class="cls-1" d="M77.74,128.61a6.11,6.11,0,0,0,1.12-2c.13-.29-.09-.48-.4-.4a3,3,0,0,0-2.46,2C75.69,129,76.81,129.53,77.74,128.61Z"/><path class="cls-1" d="M95,77.46c-.17.65.7,1.13,1,.64a1.09,1.09,0,0,1,.56-.43c.19-.08.25-.44.44-.58.53-.41.53-1,.79-1.58,0-.08,0-.21,0-.45a6.58,6.58,0,0,1-.84.36A2.52,2.52,0,0,0,95,77.46Z"/><path class="cls-1" d="M123.06,86.82c.08-.1.14-.23.22-.34a7.46,7.46,0,0,0,.77-2.26c0-.1-.07-.23-.14-.43a4.07,4.07,0,0,1-.86.63c-1.24.44-1.74,2.34-1.11,2.72A1.09,1.09,0,0,0,123.06,86.82Z"/><path class="cls-1" d="M60.75,95.14c0,.48.19.72.54.77a.84.84,0,0,0,.8-.54,2.31,2.31,0,0,1,.3-.61c.49-.56.38-1.26.49-1.9,0-.1-.13-.22-.26-.4-.43.39-.78.73-1.15,1A1.9,1.9,0,0,0,60.75,95.14Z"/><path class="cls-1" d="M79.71,90.36c-.38,0-.76-.14-1.09.2s-.72.63-1.05,1a1.63,1.63,0,0,0-.27.49c0,.61.28.89.77.77.67-.16.67-.11,1.86-2A.25.25,0,0,0,79.71,90.36Z"/><path class="cls-1" d="M126.27,119.54c.3-.38.2-.71.1-1.23-.31.14-.53.23-.74.35a4.93,4.93,0,0,1-.63.42,2.81,2.81,0,0,0-1.22,1.06,1.58,1.58,0,0,0-.33,1.49c.13.45.42.66.79.41a4.39,4.39,0,0,0,1.12-1C125.72,120.59,125.91,120,126.27,119.54Z"/><path class="cls-1" d="M85.58,147.28a18.6,18.6,0,0,0,.89-1.92.38.38,0,0,0-.41-.54,3.2,3.2,0,0,0-1.09.51,2.75,2.75,0,0,0-1.37,1.93C83.36,148.22,84.75,148.73,85.58,147.28Z"/><path class="cls-1" d="M115.66,115.31c.42-.06.91,0,1.2-.46a6.8,6.8,0,0,0,1.3-2.26c0-.14.06-.4,0-.43a.62.62,0,0,0-.5,0,10.17,10.17,0,0,0-1.48.73C114.64,113.86,115.23,115.36,115.66,115.31Z"/><path class="cls-1" d="M124.59,100.27c-.12.29-.22.47-.6.41-.23,0-.4.32-.32.58,0,0,0,.07-.08.14l-.51-.19a3.76,3.76,0,0,0-.74,1.81.66.66,0,1,0,1.24.43c.07-.11.12-.32.2-.34.48-.08.49-.49.62-.81a1.72,1.72,0,0,1,.25-.55,3.64,3.64,0,0,0,.52-1.78s-.06-.06-.16-.15C124.87,100,124.66,100.09,124.59,100.27Z"/><path class="cls-1" d="M97.13,99.64c.08.46.3.64.77.58A1.39,1.39,0,0,0,99,99.55c.33-.6.62-1.22.9-1.85.05-.13,0-.32-.1-.59a17.67,17.67,0,0,0-1.66.7A1.79,1.79,0,0,0,97.13,99.64Z"/><path class="cls-1" d="M108.54,139.82c.37.22.64-.1.91-.31.79-.63.86-1.95,1-2.91.05-.25-.22-.43-.39-.28-.39.33-1,.48-1,1.19-.3-.3-.52-.18-.63.09a5.52,5.52,0,0,0-.4,1.23A1,1,0,0,0,108.54,139.82Z"/><path class="cls-1" d="M87.31,104.91c0-.13.08-.35,0-.42a.47.47,0,0,0-.42,0,11.24,11.24,0,0,0-1.33.7,1.64,1.64,0,0,0-.9,1.61c0,.78.3,1.08.93.72a3.13,3.13,0,0,0,1.44-1.7C87.13,105.5,87.19,105.2,87.31,104.91Z"/><path class="cls-1" d="M105.26,124.28a1.82,1.82,0,0,0,1.65-1.11c.06-.57.87-.86.76-1.93a4.11,4.11,0,0,0-1.54.5c-.53.25-.83.56-1.41,1.84C104.58,123.89,104.84,124.2,105.26,124.28Z"/><path class="cls-1" d="M96.18,115.24a1.73,1.73,0,0,0,1.18-.89,16.85,16.85,0,0,0,.75-1.68c.12-.27-.12-.51-.42-.41A3.79,3.79,0,0,0,95.37,114,1,1,0,0,0,96.18,115.24Z"/><path class="cls-1" d="M90.77,126.94a1.54,1.54,0,0,0-.77,1.33c0,.72.37,1,1,.67a2.18,2.18,0,0,0,.82-.59c.14-.18,1.15-1.61,1-1.78C92.44,126.13,91.26,126.63,90.77,126.94Z"/><path class="cls-1" d="M100.24,136.78c-.08-.49-.42-.51-.65-.42a3.48,3.48,0,0,0-1.89,1.3,1,1,0,0,0,.21,1.26c.59.42,1.09-.16,1.81-1.16C100,137.31,99.52,137,100.24,136.78Z"/><path class="cls-1" d="M108.07,107a4.66,4.66,0,0,0,.6-2.43c-.31.24-.5.36-.66.51-.32.3-.63.62-1,.94a1.6,1.6,0,0,0-.18,2.1c.3-.13.63-.2.8-.56A3.52,3.52,0,0,1,108.07,107Z"/><path class="cls-1" d="M33.66,124.3a2.5,2.5,0,0,0,1.75-1,7.63,7.63,0,0,0,1-2.92.56.56,0,0,0-.12-.48c-.09-.08-.33,0-.48.05s-.43.27-.66.39a4.87,4.87,0,0,0-2,2.2,1.38,1.38,0,0,0,0,1.39C33.27,124.07,33.52,124.18,33.66,124.3Z"/><path class="cls-1" d="M48.22,123.88a1.88,1.88,0,0,0-.52,1.63c.13,1.31,1.81.6,2.56-.58a7.89,7.89,0,0,0,1.15-2.34,1.86,1.86,0,0,0-.34-.09,1.39,1.39,0,0,0-.35,0A5.06,5.06,0,0,0,48.22,123.88Z"/><path class="cls-1" d="M30.53,73.86a5.4,5.4,0,0,0-.29,1.35c-.07.43.21.67.53.88s.59.07.86-.15a3.07,3.07,0,0,0,1.13-2.2c.21-1.69.09-1.58,0-2.11A4.78,4.78,0,0,0,30.53,73.86Z"/><path class="cls-1" d="M52.78,78a6.72,6.72,0,0,0,1.13-2.11c.14-.33,0-.54-.35-.51-.6-.12-1,.34-1.46.53-.85.32-1.15,1.07-1.48,1.8a.94.94,0,0,0,.25,1.07C51.56,79.22,52.18,78.66,52.78,78Z"/><path class="cls-1" d="M22.49,110.23c1-.46.78-1,1.11-1.42a4.94,4.94,0,0,0,.78-2.36c0-.08-.1-.18-.16-.28-.33.23-.64.43-.93.65a6.4,6.4,0,0,0-1.07.86C20.72,109.45,21.42,110.74,22.49,110.23Z"/><path class="cls-1" d="M35.47,102.2c-.3-.2-.52,0-.75.16s-.68.76-.92.92a2,2,0,0,0-.79,1.88c.15,1.36,1.49.77,1.89,0,1.06-1.89.43-1.39.67-2.34C35.63,102.63,35.77,102.38,35.47,102.2Z"/><path class="cls-1" d="M51.14,105.94c0,1,1.84.58,2.3-.87.68-2.13.5-1.44.55-2.3a3.81,3.81,0,0,0-2,1.13A2.64,2.64,0,0,0,51.14,105.94Z"/><path class="cls-1" d="M22.58,69.53c.16-.9,1.12-1.4,1.13-3.22l-.19-.14a13.87,13.87,0,0,0-2,1.46,2.44,2.44,0,0,0-.64,2.17C21.07,70.69,22.48,70.09,22.58,69.53Z"/><path class="cls-1" d="M29.9,91.06a3.46,3.46,0,0,0,1.24-2c.1-.62.31-1.23.49-1.9-.33-.1-.39-.11-.59,0-1.28,1-1.17.91-1.35,1.23-.05.1-.06.26-.14.29-.7.35-.6,1.1-.79,1.68-.06.17.18.5.37.68A.57.57,0,0,0,29.9,91.06Z"/><path class="cls-1" d="M8.32,83.66c-.38.29-.7.67-1.1.93a2.45,2.45,0,0,0-1,1.79.7.7,0,0,0,.26.74c.4.28.78-.07,1.1-.32.78-.61.86-1.62,1.33-2.41a3.25,3.25,0,0,0,.25-.82A.6.6,0,0,0,8.32,83.66Z"/><path class="cls-1" d="M43,94.43c0,.32,0,.6.36.74a.72.72,0,0,0,.83-.15,6.41,6.41,0,0,0,1.7-2.47,1.65,1.65,0,0,0,0-.55,3.8,3.8,0,0,0-2.28,1.16A1.8,1.8,0,0,0,43,94.43Z"/><path class="cls-1" d="M13.66,96.88c.19.2.5.18.89-.06a1.12,1.12,0,0,0,.26-.22c1.49-2.26,1.13-2.38,1-2.92l-1.39.83c-.13.08-.32.18-.35.3a2.06,2.06,0,0,1-.51,1A1.09,1.09,0,0,0,13.66,96.88Z"/><path class="cls-1" d="M6.47,68.54a5.48,5.48,0,0,0-.09.78.55.55,0,0,0,.24.37.84.84,0,0,0,1-.29,12.38,12.38,0,0,0,.86-1.5,7,7,0,0,0,.36-1.54,2.86,2.86,0,0,0-1.42.88,4.27,4.27,0,0,0-.54.62c-.13.22,0,.57,0,.87,0,0,0,.07-.07.13Z"/><path class="cls-1" d="M39.53,70.93a.56.56,0,0,0,.25.67c.26.14.47,0,.69-.16A4.59,4.59,0,0,0,41.82,69a2.35,2.35,0,0,0-1.48.51C39.74,69.81,39.7,70.41,39.53,70.93Z"/><path class="cls-1" d="M94.91,57.63l-.09,0a2,2,0,0,0,0-.35c0-.24-.19-.36-.37-.25-1.77,1.05-1.15.89-2.7,2.92a2.17,2.17,0,0,0-.3,2,.91.91,0,0,0,1.33.66C94.28,61.45,94,61.84,94.91,57.63Z"/><path class="cls-1" d="M113.32,57.5a3.12,3.12,0,0,0-.59.19,3.41,3.41,0,0,0-2.3,2.28.93.93,0,0,0,.24,1c.29.31.63.21,1,.08a2,2,0,0,0,.39-.28,8.74,8.74,0,0,0,2-3.2A4.41,4.41,0,0,0,113.32,57.5Z"/><path class="cls-1" d="M68.25,3.76c.32-.14.68-.22,1.21-1.49A4.86,4.86,0,0,0,70,0c-.42.18-.7.32-1,.42a3.06,3.06,0,0,0-2,2.22,1,1,0,0,0,.3,1A.77.77,0,0,0,68.25,3.76Z"/><path class="cls-1" d="M76.77,10.11a5.16,5.16,0,0,0,2-3.09.64.64,0,0,0-.06-.43c0-.07-.27-.07-.38,0-1.37.54-2.86,1.56-2.66,3a.73.73,0,0,0,.76.63C76.5,10.18,76.67,10.19,76.77,10.11Z"/><path class="cls-1" d="M60.08,23.47c1.7-2.42,1.36-1.95,1.46-2.63-.69.14-1.22.23-1.75.35a2,2,0,0,0-1.52,1.54c-.11.4-.22.82.21,1.12A1.29,1.29,0,0,0,60.08,23.47Z"/><path class="cls-1" d="M118.34,40.3a1.81,1.81,0,0,0,.21-.18,4.81,4.81,0,0,0,1.23-3.41,4.76,4.76,0,0,0-2.39,1.64C116.58,39.59,117.14,41.1,118.34,40.3Z"/><path class="cls-1" d="M93.46,44.69c-.42.75-.24,1.55.69,1.58a2.4,2.4,0,0,0,.4-.15,4.37,4.37,0,0,0,1.53-1.72,4.47,4.47,0,0,0,.38-1.1c.08-.29-.09-.51-.34-.42A4.44,4.44,0,0,0,93.46,44.69Z"/><path class="cls-1" d="M61.17,42.3c-1.3.4-2.87,1-2.76,2.43.05.56.23.73.87.72l.31-.09a3.34,3.34,0,0,0,1.63-1.62,3.44,3.44,0,0,0,.38-1C61.7,42.44,61.49,42.2,61.17,42.3Z"/><path class="cls-1" d="M70,32.64a15.19,15.19,0,0,0,.64-1.79.5.5,0,0,0-.08-.43.52.52,0,0,0-.44,0c-1.79.87-3,2.05-1.76,3.63A2.41,2.41,0,0,0,70,32.64Z"/><path class="cls-1" d="M70.6,55a1.93,1.93,0,0,0,.62-.32A6.85,6.85,0,0,0,72,53.55c.1-.19.72-1.44.53-1.55a.71.71,0,0,0-.56-.1,8.41,8.41,0,0,0-1.43.66,2,2,0,0,0-.9,1.63C69.58,54.72,69.91,55,70.6,55Z"/><path class="cls-1" d="M127.24,40.07c-.16.42.11.74.57.68,1.77-.24,2-1.37,2.41-2.22s-1.3-.53-2.32.37A2.93,2.93,0,0,0,127.24,40.07Z"/><path class="cls-1" d="M100.52,31.93c1.62-.77,1.44-1.63,2.2-2.3-.2-.35-.48-.3-.76-.27a3.63,3.63,0,0,0-2.28,1.48A.71.71,0,0,0,100.52,31.93Z"/><path class="cls-1" d="M80.1,50a1,1,0,0,0,.77-.08c.26-.17.33-.59.71-.67.16-.61.75-1,.81-1.68,0-.17.18-.37,0-.48a.7.7,0,0,0-.51,0c-.32.12-.61.31-.93.44-.83.33-1.05,1-1.17,2C79.83,49.63,79.92,49.94,80.1,50Z"/><path class="cls-1" d="M129.6,50.93c-2,.48-2.15,1.18-2.57,1.8a.92.92,0,0,0,.54.75c.23.13.48-.33.7,0l.34-.33c.09-.1.15-.24.26-.31a2.83,2.83,0,0,0,1.09-1.5C130.09,51.06,129.92,50.86,129.6,50.93Z"/><path class="cls-1" d="M106.5,52a4.69,4.69,0,0,0-2.44.67,1.32,1.32,0,0,0-.64,1c-.06.34.25.77.56.74a2.06,2.06,0,0,0,.9-.27A4.2,4.2,0,0,0,106.5,52Z"/><path class="cls-1" d="M105.37,9.13c1-.87,1-1.61,1.51-4.88a.34.34,0,0,0-.49-.37,4.81,4.81,0,0,0-1.17.73,4.45,4.45,0,0,0-1.57,3.68C103.62,9.26,104.44,9.91,105.37,9.13Z"/><path class="cls-1" d="M111.59,18.85a1.53,1.53,0,0,0,1.11-1.19,14.09,14.09,0,0,0,.62-3.13l-.17,0c-.55.48-1.14.92-1.65,1.44a2.43,2.43,0,0,0-.71,2.46C110.93,18.85,111.11,19,111.59,18.85Z"/><path class="cls-1" d="M86.26,4.64c1.15,0,1.8-2,2.18-2.55a.55.55,0,0,0,0-.17c0-.36-.34-.51-.74-.33s-1,.42-1.44.66c-.88.47-1.74,1.67-1.11,2.43C85.54,5.1,85.87,4.65,86.26,4.64Z"/><path class="cls-1" d="M98.76,19.23a3.88,3.88,0,0,0-2,2.91c0,.15.07.29.11.42.33,1,1.08.71,1.61-.07a5.38,5.38,0,0,0,.83-2.92C99.29,19.16,99.13,19.08,98.76,19.23Z"/><path class="cls-1" d="M89.72,21.33l-.4-.1c-.53-.1-.9.28-1.33.46a2.66,2.66,0,0,0-1.35,1.56,1.24,1.24,0,0,0,.1.79c.21.6,1,.43,1.31.05A5.51,5.51,0,0,0,89.72,21.33Z"/><path class="cls-1" d="M119.94,22.53c-.57.29-1.12.55-1.64.86a1.64,1.64,0,0,0-.73,1.2c-.11.64.34.93,1,.79.48-.1.67-.49,1-.76S120.76,23,119.94,22.53Z"/><path class="cls-1" d="M21.53,12.54a2.09,2.09,0,0,0,.77-.67c.81-1.4.67-1.68.67-3.73h0a4.82,4.82,0,0,0,0-.76c0-.16-.13-.38-.26-.43s-.33.07-.46.17A8.57,8.57,0,0,0,20.5,9.51a4,4,0,0,0-.41,2.19A.93.93,0,0,0,21.53,12.54Z"/><path class="cls-1" d="M24.54,32.4c-.56.36-1,.68-1.48.93a1.82,1.82,0,0,0-.9,1,5.13,5.13,0,0,1-.55,1.16,1.14,1.14,0,0,0,0,1.18c.32.67,1.14.22,1.36-.1C23.81,35.31,24.87,33.89,24.54,32.4Z"/><path class="cls-1" d="M2.85,50.48a3.7,3.7,0,0,0-.43.25,4.78,4.78,0,0,1-.8.64,3.64,3.64,0,0,0-1.57,2A1.3,1.3,0,0,0,.4,54.57c.68.5,1.27-.17,1.59-.49s.3-.48,1.18-3l-.1,0s0,0,0-.07C3,50.83,2.93,50.65,2.85,50.48Z"/><path class="cls-1" d="M26,62.37c1.29-1.16,1.07-.9,1.92-3.14-.29-.43-.31-.46-.59-.36-1.89.69-2.73,1.94-2.83,2.91S25.39,62.91,26,62.37Z"/><path class="cls-1" d="M50.83,62.68a.86.86,0,0,0-.48,0c-.62.37-1.56.1-1.94,1-.76.08-.69.77-.88,1.25s.2.86.73.84a2.89,2.89,0,0,0,1.49-.7c.53-.54.84-1.22,1.34-1.77C51.35,63,51.22,62.73,50.83,62.68Z"/><path class="cls-1" d="M44.93,44.23c-1.81.7-2.1,3.56-.49,3a1.62,1.62,0,0,0,.71-.5,6,6,0,0,0,1.34-2.61C46.69,43.17,45.74,43.92,44.93,44.23Z"/><path class="cls-1" d="M33.17,8c.82-.41,1-.92,1.88-2.58-.08-.37-.16-.72-.24-1.12a.86.86,0,0,0-.28,0c-1.73,1.12-1.8,1-2.22,2.21C32.14,7,32.3,8.43,33.17,8Z"/><path class="cls-1" d="M8.87,35.7c-.61.18-1.15.36-1.7.49A2.51,2.51,0,0,0,5.59,37.4a.85.85,0,0,0,1.15,1.19,4.74,4.74,0,0,0,1.64-1.44A1.72,1.72,0,0,0,8.87,35.7Z"/><path class="cls-1" d="M15.64,48A2,2,0,0,0,14,49.45a.86.86,0,0,0,.18.89c.25.26.53.19.83.08a6.68,6.68,0,0,0,2.49-2.2c.06-.07,0-.25,0-.49C16.77,47.83,16.19,47.86,15.64,48Z"/><path class="cls-1" d="M50.1,26.1a4.7,4.7,0,0,0-2.26,1.46,1.35,1.35,0,0,0-.2,1.59,1.65,1.65,0,0,1,.36,0,1.85,1.85,0,0,0,1.88-1.06c.21-.47.45-.94.65-1.42a.54.54,0,0,0,0-.45A.44.44,0,0,0,50.1,26.1Z"/><path class="cls-1" d="M34.1,36.4A4.31,4.31,0,0,0,36,34c0-.08,0-.22-.09-.44-.56.18-1,.34-1.51.47A2.28,2.28,0,0,0,33,35.17C32.62,35.83,32.85,37,34.1,36.4Z"/><path class="cls-1" d="M45.82,15a2.73,2.73,0,0,0,.37-2.18,7.71,7.71,0,0,1-1.07.72,2.67,2.67,0,0,0-1.36,2,1.07,1.07,0,0,0,.29.85C44.33,16.65,45.31,16.44,45.82,15Z"/><path class="cls-1" d="M36.18,48.72A8.35,8.35,0,0,0,35,49c-.91.32-1.23.83-1.14,1.58a.63.63,0,0,0,.76.6,1.37,1.37,0,0,0,1-.48c.36-.47.79-.89,1.14-1.38s.07-.65-.56-.52Z"/><path class="cls-1" d="M28.12,16.46a.4.4,0,0,0-.37-.07c-1.75.64-1.94.85-2.33,2.12-.33,1.09,1.37,1,2-.16l-.29-.2c.24-.13.49-.18.59-.33a5.19,5.19,0,0,0,.47-1A.46.46,0,0,0,28.12,16.46Z"/><path class="cls-1" d="M14.9,25.76a.59.59,0,0,0,0-.5.64.64,0,0,0-.5-.1c-1.41.31-2.76,1-2.91,2.4-.1.94,1.42,1.25,2.42-.15A15.16,15.16,0,0,0,14.9,25.76Z"/></g></g></svg>