<?xml version="1.0" encoding="utf-8"?>
<!-- Generator: Adobe Illustrator 23.0.1, SVG Export Plug-In . SVG Version: 6.00 Build 0)  -->
<svg version="1.1" xmlns="http://www.w3.org/2000/svg" xmlns:xlink="http://www.w3.org/1999/xlink" x="0px" y="0px"
	 viewBox="0 0 500 500" style="enable-background:new 0 0 500 500;" xml:space="preserve">
<style type="text/css">
	.st0{display:none;}
	.st1{display:inline;fill:#222222;}
	.st2{display:inline;}
	.st3{fill:#FFFFFF;}
	.st4{fill:#FECC5E;}
	.st5{clip-path:url(#SVGID_2_);}
	.st6{fill:#222222;}
</style>
<g id="Layer_1" class="st0">
	<circle class="st1" cx="250" cy="250" r="76"/>
	<circle class="st1" cx="250" cy="250" r="76"/>
	<g class="st2">
		<g>
			<g>
				<path class="st3" d="M339.19,336.9c-0.72,2.69-0.33,5.77,1.06,8.05c0.41,0.1,0.52-0.65,0.76-1.06c0.23-0.38,0.59-0.42,0.94-0.27
					c0.36,0.73,0.74,1.46,1.14,2.17c0.08,0.8,0.1,1.61,0.51,2.24c0.41,0.64,1.14,0.93,1.74,1.33c0.3,0.43,0.62,0.84,0.94,1.25
					c0.14,0.61,0.26,1.5,0.73,1.28c0.05-0.07,0.1-0.16,0.14-0.24c0.75,0.85,1.55,1.64,2.41,2.35c0.92,0.76,1.96,1.5,2.41,2.71
					c0.76,2.04-0.53,4.38-2.07,5.68c-1.54,1.31-3.42,2.13-4.67,3.81s-1.46,4.76,0.23,5.8c0.34,0.21,0.72,0.31,1.1,0.41
					c5.56,1.41,11.25,2.1,16.94,2.06c2.55-0.02,5.34-0.3,7.18-2.37c1.07-1.21,1.66-2.87,2.13-4.53c1.35-4.83,1.78-10.01,1.28-15.05
					c-0.12-1.23-0.3-2.45-0.26-3.69c0.04-1.22,0.3-2.42,0.38-3.64c0.09-1.29-0.02-2.56-0.24-3.82c0-0.33,0-0.67-0.03-1
					c-0.15-1.71-0.78-3.26-1.44-4.8"/>
				<g>
					<g>
						<path class="st3" d="M297.23,302.49c-0.65,0-1.29,0-1.94,0.01l0.62,1.07C296.34,303.2,296.78,302.84,297.23,302.49z"/>
						<path class="st3" d="M405.74,364.78c-0.15-1.27-0.38-2.54-0.32-3.81c0.05-1.26,0.37-2.5,0.47-3.76
							c0.11-1.33-0.03-2.65-0.3-3.95c0-0.35,0-0.69-0.04-1.04c-0.19-1.77-0.97-3.37-1.79-4.97c-0.16-0.49-0.32-0.97-0.48-1.46
							c-0.31-1-0.57-2.02-0.8-3.04c0.42,0.19,0.9,0.24,1.33,0.07c-0.17-3.91-1.15-7.77-2.81-11.31c-0.02-0.35-0.04-0.7-0.06-1.06
							c0.24,0.15,0.5,0.28,0.78,0.35c-0.3-2.91-0.68-5.82-1.11-8.71c-0.11-2.78-0.25-5.58-0.49-8.35c0.25,0.25,0.48,0.53,0.64,0.84
							c0.35-3.52-0.38-7.12-2-10.26c-0.1-0.45-0.19-0.91-0.3-1.36c0.14,0.1,0.28,0.2,0.41,0.31c-1.38-6.07-3.95-11.88-7.53-16.97
							c0.62,0.88,1.74,1.39,2.81,1.27c-1.14-2.79-2.82-5.36-4.9-7.54c-0.1-0.9-0.15-1.8-0.16-2.72c0.21,0.19,0.43,0.37,0.68,0.52
							c0.2-3.19,0.19-6.39,0-9.59c0.06-0.48,0.11-0.96,0.17-1.44c0.33,0.35,0.67,0.7,1,1.06c0.45-1.94,0.24-4.02-0.55-5.85
							c0.02-0.3,0.05-0.6,0.07-0.9c0.48,0.24,1.01,0.38,1.55,0.37c-0.46-1.52-0.92-3.03-1.38-4.55c0.02-1.22,0.02-2.44,0-3.66
							c0.22,0.15,0.44,0.29,0.65,0.44c0.4-2.36,0.03-4.84-0.99-7c-0.02-0.24-0.04-0.49-0.06-0.73c0.92,0.71,1.94,1.29,3.03,1.69
							c-0.92-3.55-2.33-6.97-4.17-10.14c-0.38-2.12-0.83-4.23-1.35-6.32c-4.19,0.03-5.84,5.22-6.44,9.26
							c-1.53,10.35-4.02,20.57-7.41,30.49c-0.6,1.77-1.38,3.69-3.09,4.52c-0.1,0.05-0.21,0.09-0.31,0.13
							c-2.15-0.63-4.51-0.82-6.76-0.89c-2.59-0.08-5.18-0.08-7.77,0.01c0.47-0.53,0.95-1.06,1.42-1.6
							c-6.41,0.39-12.8,0.98-19.17,1.78c0.26-0.24,0.4-0.7,0.18-1.01c-0.36-0.51-1.08-0.57-1.71-0.59
							c-2.52-0.05-5.03-0.11-7.55-0.16l-0.07,0.03c0,0,0-0.01,0-0.01c-2.22-0.51-4.43-1.09-6.62-1.73c0.15-0.04,0.31-0.08,0.46-0.13
							c-2.09-1.84-5.09-1.85-7.88-2.3c-3.03-1.1-6.01-2.33-8.94-3.67c-0.2-0.21-0.34-0.45-0.35-0.74c-4-1.73-7.86-3.8-11.52-6.16
							c-0.18-0.15-0.35-0.31-0.52-0.47c0.47-0.16,0.94-0.32,1.41-0.48c-1.52-1.1-3.04-2.2-4.56-3.29c-0.1-0.15-0.2-0.31-0.29-0.47
							c0.52-0.02,1.05-0.03,1.57-0.05c-1.08-1.06-2.15-2.13-3.23-3.19c0.47-0.25,0.95-0.5,1.42-0.76c-2.11-1.34-2.76-3.98-3.9-6.26
							c-0.17-0.57-0.34-1.15-0.51-1.72c0.52-0.01,1.04-0.16,1.48-0.44c-0.86-1.03-1.72-2.06-2.57-3.09
							c-0.3-0.89-0.61-1.79-0.95-2.68c0.06-0.01,0.12-0.02,0.18-0.02c0.31-1.11-0.75-2.08-1.69-2.74c-0.66-0.47-1.33-0.94-1.99-1.41
							c-0.06-0.2,0.05-0.33,0.45-0.35c-3.32-0.95-4.3-3.7-4.71-6.99c0.24,0.22,0.48,0.45,0.73,0.67c0.08-1.65-0.25-3.32-0.95-4.81
							c0.29,0.43,0.83,0.7,1.35,0.62c-0.03-1.42-0.54-2.83-1.43-3.94c0.5-1.06,0.19-2.44-0.71-3.2c0,0,0,0,0,0
							c0.4,0.39,0.96,0.61,1.52,0.58c-0.58-1.21-1.19-2.41-1.82-3.6c-0.06-0.58-0.12-1.17-0.19-1.75c0.22,0.04,0.43,0.08,0.65,0.12
							c-0.27-1.44-0.72-2.85-1.34-4.18c-0.44-1.9-1.06-3.74-2.04-5.45c-6.77,2.96-11.64,9.77-12.46,17.09
							c-0.01-0.08-0.03-0.17-0.06-0.25c-0.1-0.31-0.4-0.61-0.72-0.53c-0.25,0.07-0.39,0.33-0.55,0.53c-0.17,0.2-0.49,0.35-0.67,0.16
							c-0.19-0.21-0.05-0.66-0.32-0.74c-0.09-0.03-0.19,0.01-0.27,0.05c-0.31,0.15-0.61,0.35-0.86,0.58
							c-0.17,0.15-0.36,0.34-0.58,0.29c-0.15-0.04-0.25-0.17-0.31-0.31c-0.19-0.42-0.12-0.92-0.24-1.37
							c-0.03-0.11-0.08-0.23-0.18-0.28c-0.18-0.09-0.38,0.05-0.52,0.19c-0.2,0.2-0.38,0.41-0.55,0.62
							c-0.65,0.32-1.16,0.93-1.31,1.63c-0.79-1.26,1.61-3.9-0.69-2.87c-1.12,1.42-2.77,1.47-3.88,2.89
							c0.39-0.49,0.42-2.22,0.48-2.84c-0.91,0.61-2.09,1.25-3.11,2.01c-0.34-0.77-0.69-1.55-1.06-2.31
							c-0.11-0.22-0.28-0.48-0.53-0.46c-0.23,0.02-0.36,0.27-0.43,0.49c-0.29,0.99-0.07,2.09-0.22,3.09
							c-0.07,0.06-0.14,0.13-0.21,0.22c-0.12,0.15-0.14,0.37-0.06,0.54c-0.95-3.27-3.22-6.14-4.85-9.12
							c-0.48-0.87-12.02-13.49-12.92-10.32c-2.27,7.94-1.17,16.79,2.98,23.94c-1.94,1.07-3.5,2.81-4.33,4.86
							c0.36-0.08,0.73-0.15,1.09-0.23l-0.2,0.5c-0.57,0.43-1.25,0.73-1.89,1.05c-2.05,1.02-3.95,2.59-4.75,4.73
							c0.87-0.05,1.73-0.11,2.6-0.16c0.25,1.28-0.27,3.2-1.3,4.24c-1.75,1.77-3.41,5.33-1.03,6.05c-1.46,1.49-0.54,2.77-1.02,4.79
							l3.23-1.86c-1.32,1.53-0.4,4.35,1.57,4.8c-3.48,4.48-8.52,8.6-12.18,13.48c-1.73,2.31-3.14,5.02,0.37,9.45l1.45,0.72
							c0.54,0.37,1.94,2.57,2.78,2.73c0.11,0.02,0.21,0.05,0.31,0.08c-0.01,3.58,1.8,7.09,4.44,9.56c0.38,0.36,0.8,0.69,1.24,0.98
							c0.2,0.43,0.41,0.86,0.63,1.3c1.13-1.19,1.91,1.86,3.04,0.68c0.27,1.96,2.12,3.16,4.01,2.58c-0.04-1.36,0.27-5.16,0.36-3.8
							c0.05,0.78,2.93,3.42,4.16,2.17c-0.09-1.89,0.27-4.77,1.27-6.48c0.23,1.78,0.9,3.5,1.94,4.95c0.11-0.96,0.37-1.91,0.77-2.79
							c0.59,0.32,1.23,0.55,1.9,0.67c0.07,0.55,0.14,1.1,0.21,1.65c0.02,0.19,0.05,0.39,0.16,0.55c0.32,0.45,1.08,0.25,1.41-0.19
							c0.1-0.13,0.17-0.27,0.24-0.42c-0.11,1.44,0.04,2.97,0.53,4.15c0.01,0.2,0.01,0.39,0.03,0.59c0.09,0.9,0.35,1.79,0.73,2.62
							c-1.09,2.31-2.03,4.69-2.8,7.13c0.56-0.37,1.11-0.73,1.67-1.1c-0.27,1.11-0.44,2.23-0.53,3.37c-0.69,2.8-0.8,5.74-0.27,8.57
							c0.35-0.11,0.69-0.28,1-0.48c0.04,0.2,0.07,0.4,0.11,0.6c0.16,0.84,0.45,1.55,0.81,2.18c-0.03,0.64-0.06,1.28-0.09,1.93
							c-0.02,0.68-0.19,2.96,0.49,3c0.37,0.02,0.73-0.74,0.99-0.99c0.11-0.11,0.2-0.19,0.28-0.27c-0.28,1.23-0.53,2.47-0.74,3.72
							c-0.06,0.34-0.09,0.75,0.18,0.98c0.42,0.35,1.01-0.12,1.34-0.55c0.31-0.4,0.61-0.79,0.92-1.19c0.01,0.2,0.01,0.41,0,0.65
							c-0.01,0.36,0.3,0.74,0.68,0.97c-0.28,1.07-0.53,2.14-0.21,3.17c0.25,0.08,0.49-0.15,0.66-0.35c0.53-0.64,1.06-1.28,1.59-1.92
							c0.04,0.06,0.07,0.11,0.11,0.17c-0.48,1.17-0.81,2.41-0.96,3.66c-0.06,0.49,0.02,1.14,0.51,1.23c0.33-0.59,0.66-1.18,1-1.77
							c-0.15,1.3-0.3,2.6-0.45,3.89c-0.08,0.67,0.08,1.61,0.75,1.6c0.87-2.4,1.4-3.41,2.27-5.81c0.19,1.44,0.19,2.37,0.12,3.42
							c-1.07,4.32-1.73,9.29,0.47,6.98c0.1,0.24,0.22,0.48,0.35,0.71c-0.32,2.06,0.78,3.15,2.8,1.13c-0.12,9.59,0.83,6.9,3.02,6.65
							c2.1,6.76,3.75,15.31-1.61,19.94c-2.48,2.14-6.25,3.2-8.43,5.35c-0.98,0.43-1.93,1.11-1.99,2.14
							c-0.05,0.7,0.34,1.35,0.72,1.94c0.58,0.91,1.19,1.85,2.12,2.39c0.58,0.34,1.22,0.49,1.88,0.53c3.99,1,8.07,1.92,12.14,1.45
							c4.37-0.5,8.8-2.95,10.38-7.06c0.62-1.6,1.96-3.88,3.34-2.85c2.6,4.24,1.67,10.31-2.08,13.58c-1.5,1.31-3.39,2.22-4.36,4.03
							c-0.48,0.9-0.6,1.98-0.19,2.91c0.58,1.33,1.81,1.51,2.96,1.62c6.19,0.63,12.44,0.53,18.61-0.3c4.55-0.61,9.84-2.32,11.08-6.73
							c0.72-2.54-0.18-5.22-0.46-7.84c-0.28-2.62,0.63-0.86,2.92-6.73c-1.85-12.24,1.17-19.19,4.99-23.03
							c0.2-0.03,0.41-0.06,0.61-0.09l-0.02,0.19c0.12,0.75,0.81,1.36,1.56,1.39s1.5-0.51,1.69-1.24c0.07-0.28,0.09-0.58,0.2-0.84
							c0.74-0.1,1.42-0.2,2-0.28c2.14,0.49,4.26,1.08,6.35,1.76c0.02-0.97,0.05-1.94,0.07-2.91c1.05-0.37,1.92,0.95,3,1.23
							c1.42,0.37,2.68-1.73,1.69-2.81c0.01-0.57,0.92-0.57,1.36-0.21c0.44,0.37,0.86,0.93,1.42,0.85c0.55-0.07,0.83-0.72,1.32-0.99
							c0.69-0.39,1.54,0.04,2.21,0.47c1.53,0.97,3.17,1.43,3.98,0.89c1.45-0.18-0.5-0.7-0.63-2.53c-0.02-0.22,1.49-1.2,1.64-1.39
							c0.01,0,0.01-0.01,0.02-0.01c-0.04,0.12-0.43,0.86-0.21,0.85c0.91-0.05,2.36,0.65,3.26,0.81c0.89,0.17,2.28-1.43,2.7-2.23
							c0.19-0.36,0.23-0.82,0.51-1.12c0.36-0.08,0.69-0.16,1-0.22c0.93,0.26,2.03,1.28,2.82,0.69c0.35-0.26,0.48-0.77,0.88-0.96
							c0.41-0.2,0.88,0.04,1.3,0.19c1.4,0.5,2.94,0.08,4.42-0.07c0.33-0.03,0.67-0.04,1.01-0.02c1.24,0.52,2.24,1.17,3.07,1.94
							c0.27,0.99-0.04,2.11,0.05,3.16c0.1,1.2,1.45,2.5,2.38,1.73c0.21-0.17,0.35-0.43,0.51-0.66c0.37,0.77,0.72,1.57,1.07,2.41
							c-0.89,2.78-0.41,5.97,1.32,8.33c0.51,0.1,0.64-0.68,0.95-1.1c0.28-0.39,0.73-0.44,1.16-0.28c0.45,0.76,0.92,1.51,1.41,2.24
							c0.1,0.83,0.13,1.67,0.63,2.31c0.51,0.66,1.41,0.96,2.15,1.37c0.38,0.44,0.77,0.87,1.17,1.29c0.17,0.63,0.32,1.56,0.9,1.33
							c0.07-0.08,0.12-0.16,0.17-0.25c0.93,0.88,1.93,1.7,2.99,2.43c1.14,0.79,2.42,1.55,2.98,2.8c0.94,2.11-0.65,4.53-2.57,5.88
							c-1.91,1.35-4.24,2.2-5.8,3.94c-1.55,1.74-1.81,4.93,0.28,6c0.42,0.22,0.9,0.32,1.36,0.42c6.9,1.46,13.96,2.17,21.01,2.13
							c3.16-0.02,6.63-0.31,8.9-2.45c1.33-1.25,2.06-2.97,2.64-4.68C405.83,375.35,406.38,369.99,405.74,364.78z"/>
					</g>
				</g>
			</g>
		</g>
	</g>
</g>
<g id="Layer_1_copy_3">
	<g>
		<path class="st4" d="M219.14,488.99c0.08-2.21,0.19-4.41,0.3-6.62c-1.25-2.17-2.23-4.6-2.78-7.48c-0.13-0.68-0.26-1.36-0.39-2.05
			c-1.08,0.68-2.23,1.26-3.45,1.64c-1.83-9.74-1.45-19.85,0.93-29.47c0.29-3.9,0.9-7.78,1.82-11.58c-1.91,1.26-3.82,2.52-5.73,3.78
			c2.66-8.37,5.9-16.56,9.64-24.51c-1.32-2.83-2.18-5.9-2.5-9c-0.07-0.67-0.09-1.34-0.12-2.01c-1.67-4.05-2.19-9.32-1.82-14.27
			c-0.24,0.5-0.5,0.99-0.83,1.43c-1.16,1.51-3.76,2.23-4.86,0.67c-0.38-0.55-0.48-1.24-0.56-1.91c-0.24-1.89-0.48-3.78-0.72-5.67
			c-2.27-0.42-4.48-1.21-6.52-2.31c-1.35,3.05-2.26,6.29-2.64,9.6c-3.59-5.01-5.88-10.92-6.68-17.03
			c-3.44,5.89-4.69,15.8-4.37,22.29c-4.25,4.31-14.12-4.76-14.31-7.46c-0.32-4.67-1.39,8.38-1.24,13.06
			c-6.49,2.01-12.86-2.13-13.8-8.87c-3.89,4.08-6.58-6.41-10.46-2.33c-0.76-1.51-1.48-2.99-2.16-4.46
			c-1.53-0.99-2.97-2.16-4.28-3.38c-9.08-8.49-15.31-20.56-15.27-32.87c-0.36-0.09-0.71-0.21-1.08-0.28
			c-2.89-0.54-7.7-8.12-9.56-9.39l-4.98-2.49c-12.09-15.23-7.24-24.56-1.28-32.5c12.57-16.77,29.89-30.94,41.86-46.34
			c-6.77-1.55-9.95-11.23-5.41-16.5l-11.12,6.4c1.67-6.97-1.49-11.35,3.52-16.48c-8.19-2.48-2.46-14.72,3.55-20.8
			c3.55-3.59,5.32-10.18,4.47-14.58c-2.98,0.18-5.95,0.36-8.92,0.54c2.74-7.38,9.28-12.76,16.32-16.27c2.21-1.1,4.55-2.13,6.51-3.6
			l0.69-1.73c-1.25,0.26-2.5,0.53-3.74,0.79c2.85-7.05,8.22-13.03,14.88-16.7c-14.26-24.57-18.07-55-10.25-82.32
			c3.11-10.87,42.8,32.49,44.44,35.5c5.6,10.28,13.42,20.13,16.67,31.38c-0.29-0.59-0.2-1.34,0.21-1.85
			c0.26-0.33,0.5-0.57,0.73-0.76c0.52-3.46-0.24-7.22,0.76-10.63c0.22-0.76,0.68-1.61,1.46-1.67c0.86-0.07,1.45,0.82,1.83,1.59
			c1.29,2.61,2.48,5.27,3.66,7.93c3.5-2.62,7.54-4.83,10.68-6.92c-0.22,2.12-0.34,8.08-1.67,9.77c3.84-4.88,9.52-5.07,13.36-9.95
			c7.91-3.55-0.34,5.54,2.39,9.88c0.53-2.43,2.27-4.53,4.5-5.62c0.6-0.74,1.23-1.46,1.91-2.14c0.48-0.48,1.18-0.97,1.79-0.66
			c0.35,0.19,0.53,0.59,0.63,0.98c0.42,1.55,0.18,3.25,0.83,4.71c0.21,0.47,0.56,0.93,1.06,1.06c0.76,0.19,1.44-0.46,2.01-0.99
			c0.88-0.82,1.88-1.49,2.96-2c0.29-0.14,0.63-0.27,0.94-0.17c0.93,0.28,0.43,1.84,1.09,2.55c0.61,0.66,1.74,0.14,2.31-0.55
			c0.57-0.69,1.04-1.6,1.91-1.82c1.09-0.28,2.13,0.74,2.48,1.81c0.09,0.28,0.15,0.56,0.2,0.85c2.83-25.17,19.58-48.56,42.85-58.75
			c3.36,5.89,5.52,12.2,7.02,18.75c2.11,4.58,3.66,9.42,4.59,14.38c-0.74-0.14-1.48-0.28-2.23-0.43c0.24,2,0.46,4,0.67,6.01
			c2.16,4.08,4.27,8.19,6.25,12.36c-1.92,0.09-3.85-0.66-5.22-1.99c0,0,0,0.01,0,0.01c3.08,2.6,4.15,7.34,2.44,10.99
			c3.07,3.81,4.83,8.65,4.92,13.55c-1.79,0.29-3.65-0.63-4.66-2.12c2.42,5.14,3.57,10.87,3.28,16.55c-0.83-0.77-1.66-1.53-2.5-2.3
			c1.39,11.31,4.76,20.76,16.19,24.04c-1.36,0.08-1.74,0.52-1.54,1.2c2.28,1.61,4.56,3.22,6.84,4.84c3.22,2.28,6.86,5.62,5.8,9.42
			c-0.2,0.03-0.4,0.06-0.61,0.08c1.18,3.07,2.27,6.15,3.28,9.22c2.95,3.54,5.9,7.08,8.85,10.62c-1.51,0.97-3.29,1.48-5.08,1.52
			c0.59,1.99,1.18,3.96,1.77,5.92c3.91,7.85,6.15,16.92,13.41,21.53c-1.63,0.87-3.26,1.73-4.89,2.6c3.7,3.66,7.4,7.32,11.1,10.98
			c-1.8,0.05-3.6,0.11-5.41,0.16c0.33,0.54,0.67,1.08,1.01,1.61c5.23,3.77,10.46,7.55,15.7,11.32c-1.61,0.55-3.22,1.1-4.83,1.65
			c0.58,0.54,1.17,1.08,1.77,1.6c12.61,8.11,25.86,15.22,39.62,21.17c0.04,1,0.52,1.84,1.21,2.56c10.08,4.62,20.34,8.83,30.75,12.62
			c5.34,0.85,10.88,1.28,16,2.55C496.23,299.51,500,275.2,500,250C500,111.93,388.07,0,250,0S0,111.93,0,250
			c0,127.78,95.89,233.09,219.62,248.1C218.73,495.79,219.07,490.8,219.14,488.99z"/>
	</g>
</g>
<g id="Layer_1_copy_2" class="st0">
	<g class="st2">
		<defs>
			<rect id="SVGID_1_" x="174" y="174" width="152" height="152"/>
		</defs>
		<clipPath id="SVGID_2_">
			<use xlink:href="#SVGID_1_"  style="overflow:visible;"/>
		</clipPath>
		<g class="st5">
			<g>
				<g>
					<g>
						<path class="st6" d="M367.33,365c-0.99,3.69-0.45,7.93,1.46,11.06c0.57,0.13,0.71-0.9,1.05-1.46
							c0.31-0.52,0.81-0.58,1.29-0.37c0.5,1.01,1.02,2,1.57,2.98c0.11,1.1,0.14,2.22,0.7,3.07c0.57,0.88,1.56,1.28,2.39,1.82
							c0.42,0.59,0.85,1.16,1.29,1.72c0.19,0.83,0.36,2.07,1,1.76c0.07-0.1,0.13-0.21,0.19-0.33c1.03,1.17,2.13,2.26,3.32,3.23
							c1.27,1.05,2.69,2.06,3.3,3.72c1.04,2.81-0.72,6.01-2.84,7.81c-2.12,1.8-4.7,2.92-6.42,5.23c-1.72,2.31-2.01,6.55,0.31,7.97
							c0.47,0.29,0.99,0.43,1.51,0.56c7.64,1.94,15.46,2.89,23.28,2.83c3.5-0.03,7.34-0.42,9.86-3.26c1.47-1.66,2.29-3.95,2.92-6.22
							c1.85-6.64,2.45-13.75,1.75-20.68c-0.17-1.68-0.42-3.37-0.36-5.06c0.06-1.68,0.41-3.32,0.52-5c0.12-1.77-0.03-3.52-0.33-5.25
							c0-0.46,0-0.92-0.04-1.38c-0.2-2.34-1.07-4.48-1.98-6.6"/>
						<g>
							<g>
								<path class="st6" d="M309.69,317.73c-0.89,0-1.77,0.01-2.66,0.01l0.85,1.48C308.47,318.71,309.08,318.21,309.69,317.73z"/>
								<path class="st6" d="M458.77,403.3c-0.21-1.74-0.52-3.48-0.45-5.24c0.07-1.74,0.5-3.44,0.64-5.17
									c0.15-1.83-0.04-3.64-0.41-5.43c0-0.48-0.01-0.95-0.06-1.43c-0.25-2.42-1.33-4.63-2.46-6.82c-0.23-0.67-0.45-1.33-0.65-2
									c-0.43-1.38-0.78-2.78-1.1-4.18c0.57,0.27,1.24,0.33,1.83,0.09c-0.24-5.37-1.57-10.68-3.86-15.54
									c-0.03-0.48-0.06-0.97-0.08-1.45c0.33,0.2,0.69,0.38,1.07,0.47c-0.42-4-0.93-7.99-1.53-11.97
									c-0.15-3.82-0.34-7.66-0.67-11.47c0.35,0.34,0.66,0.72,0.88,1.16c0.48-4.83-0.52-9.78-2.75-14.1
									c-0.13-0.62-0.27-1.25-0.42-1.87c0.19,0.14,0.38,0.28,0.57,0.42c-1.89-8.35-5.43-16.31-10.35-23.32
									c0.86,1.21,2.39,1.91,3.86,1.75c-1.57-3.83-3.87-7.36-6.73-10.36c-0.14-1.23-0.21-2.48-0.23-3.73
									c0.29,0.27,0.6,0.51,0.93,0.72c0.28-4.38,0.27-8.78-0.01-13.17c0.08-0.66,0.16-1.32,0.23-1.97
									c0.46,0.48,0.91,0.97,1.37,1.45c0.62-2.67,0.33-5.52-0.75-8.04c0.03-0.41,0.06-0.82,0.09-1.24c0.66,0.33,1.39,0.52,2.13,0.5
									c-0.63-2.08-1.26-4.16-1.9-6.24c0.03-1.67,0.03-3.35,0-5.03c0.3,0.2,0.6,0.4,0.9,0.6c0.54-3.24,0.04-6.64-1.36-9.62
									c-0.03-0.33-0.05-0.67-0.08-1c1.26,0.98,2.66,1.77,4.16,2.32c-1.26-4.88-3.2-9.57-5.72-13.93
									c-0.52-2.91-1.14-5.81-1.85-8.68c-5.75,0.04-8.02,7.17-8.85,12.72c-2.1,14.22-5.52,28.26-10.18,41.88
									c-0.83,2.43-1.9,5.07-4.24,6.22c-0.14,0.07-0.28,0.12-0.43,0.18c-2.96-0.87-6.2-1.13-9.29-1.23
									c-3.55-0.11-7.11-0.1-10.67,0.02c0.65-0.73,1.3-1.46,1.95-2.19c-8.8,0.53-17.59,1.35-26.34,2.44
									c0.35-0.32,0.54-0.96,0.24-1.39c-0.49-0.7-1.49-0.79-2.34-0.81c-3.46-0.07-6.92-0.15-10.37-0.22l-0.1,0.04
									c0-0.01,0-0.01,0-0.02c-3.06-0.7-6.09-1.5-9.1-2.38c0.21-0.06,0.42-0.11,0.63-0.18c-2.87-2.52-6.99-2.55-10.83-3.16
									c-4.16-1.51-8.26-3.2-12.29-5.04c-0.27-0.29-0.47-0.62-0.48-1.02c-5.5-2.37-10.79-5.22-15.83-8.46
									c-0.24-0.21-0.48-0.43-0.71-0.64c0.64-0.22,1.29-0.44,1.93-0.66c-2.09-1.51-4.18-3.02-6.27-4.52
									c-0.14-0.21-0.27-0.43-0.4-0.64c0.72-0.02,1.44-0.04,2.16-0.06c-1.48-1.46-2.96-2.92-4.43-4.39
									c0.65-0.35,1.3-0.69,1.95-1.04c-2.9-1.84-3.8-5.47-5.36-8.6c-0.23-0.78-0.47-1.57-0.71-2.37c0.71-0.02,1.43-0.22,2.03-0.61
									c-1.18-1.41-2.36-2.83-3.54-4.24c-0.41-1.23-0.84-2.46-1.31-3.68c0.08-0.01,0.16-0.02,0.24-0.03
									c0.43-1.52-1.03-2.86-2.32-3.77c-0.91-0.64-1.82-1.29-2.73-1.93c-0.08-0.27,0.07-0.45,0.61-0.48
									c-4.57-1.31-5.91-5.08-6.47-9.6c0.33,0.31,0.66,0.61,1,0.92c0.11-2.27-0.35-4.56-1.31-6.61c0.4,0.59,1.15,0.96,1.86,0.85
									c-0.04-1.95-0.74-3.89-1.97-5.41c0.69-1.46,0.26-3.35-0.97-4.39c0,0,0-0.01,0-0.01c0.55,0.53,1.32,0.83,2.08,0.79
									c-0.79-1.67-1.63-3.31-2.5-4.94c-0.08-0.8-0.17-1.6-0.27-2.4c0.3,0.06,0.59,0.11,0.89,0.17c-0.37-1.98-0.99-3.91-1.83-5.75
									c-0.6-2.62-1.46-5.14-2.81-7.49c-9.3,4.07-15.99,13.42-17.12,23.47c-0.02-0.11-0.04-0.23-0.08-0.34
									c-0.14-0.43-0.55-0.84-0.99-0.72c-0.35,0.09-0.53,0.45-0.76,0.73c-0.23,0.28-0.68,0.48-0.92,0.22
									c-0.26-0.28-0.07-0.9-0.43-1.02c-0.12-0.04-0.26,0.01-0.37,0.07c-0.43,0.2-0.83,0.47-1.18,0.8c-0.23,0.21-0.5,0.47-0.8,0.4
									c-0.2-0.05-0.34-0.23-0.42-0.42c-0.26-0.58-0.17-1.26-0.33-1.88c-0.04-0.15-0.11-0.32-0.25-0.39
									c-0.24-0.13-0.52,0.07-0.71,0.26c-0.27,0.27-0.52,0.56-0.76,0.85c-0.89,0.44-1.59,1.27-1.8,2.24
									c-1.09-1.73,2.21-5.36-0.95-3.95c-1.53,1.95-3.8,2.03-5.34,3.98c0.53-0.67,0.58-3.06,0.67-3.9
									c-1.26,0.83-2.87,1.72-4.27,2.76c-0.47-1.06-0.95-2.12-1.46-3.17c-0.15-0.31-0.39-0.67-0.73-0.64
									c-0.31,0.03-0.5,0.37-0.58,0.67c-0.4,1.36-0.1,2.87-0.3,4.25c-0.09,0.08-0.19,0.17-0.29,0.3c-0.16,0.2-0.2,0.5-0.08,0.74
									c-1.3-4.49-4.42-8.43-6.66-12.54c-0.65-1.2-16.51-18.53-17.76-14.18c-3.12,10.91-1.6,23.07,4.09,32.89
									c-2.66,1.47-4.8,3.86-5.94,6.67c0.5-0.1,1-0.21,1.5-0.31l-0.28,0.69c-0.78,0.59-1.71,1-2.6,1.44
									c-2.81,1.4-5.43,3.55-6.52,6.5c1.19-0.07,2.38-0.14,3.57-0.22c0.34,1.76-0.37,4.39-1.79,5.83c-2.4,2.43-4.69,7.32-1.42,8.31
									c-2,2.05-0.74,3.8-1.41,6.58l4.44-2.56c-1.81,2.1-0.55,5.97,2.16,6.59c-4.78,6.15-11.7,11.81-16.73,18.51
									c-2.38,3.17-4.32,6.9,0.51,12.99l1.99,0.99c0.74,0.51,2.66,3.54,3.82,3.75c0.15,0.03,0.29,0.07,0.43,0.11
									c-0.02,4.92,2.47,9.74,6.1,13.13c0.52,0.49,1.1,0.95,1.71,1.35c0.27,0.59,0.56,1.18,0.86,1.78
									c1.55-1.63,2.63,2.56,4.18,0.93c0.37,2.69,2.92,4.34,5.51,3.54c-0.06-1.87,0.37-7.09,0.5-5.22c0.07,1.08,4.02,4.7,5.72,2.98
									c-0.13-2.59,0.37-6.55,1.75-8.91c0.32,2.44,1.24,4.8,2.67,6.8c0.15-1.32,0.51-2.62,1.06-3.84c0.81,0.44,1.7,0.75,2.6,0.92
									c0.1,0.75,0.19,1.51,0.29,2.26c0.03,0.27,0.07,0.54,0.23,0.76c0.44,0.62,1.48,0.34,1.94-0.27c0.14-0.18,0.24-0.37,0.33-0.57
									c-0.15,1.98,0.06,4.09,0.73,5.7c0.01,0.27,0.02,0.54,0.05,0.8c0.13,1.24,0.47,2.46,1,3.59c-1.49,3.18-2.79,6.44-3.85,9.79
									c0.76-0.5,1.53-1.01,2.29-1.51c-0.37,1.52-0.61,3.07-0.73,4.63c-0.95,3.84-1.1,7.88-0.37,11.77
									c0.49-0.15,0.95-0.38,1.38-0.66c0.05,0.27,0.1,0.55,0.15,0.82c0.22,1.15,0.61,2.12,1.11,2.99
									c-0.04,0.88-0.09,1.76-0.12,2.65c-0.03,0.94-0.27,4.07,0.67,4.12c0.51,0.03,1-1.01,1.37-1.37c0.15-0.15,0.28-0.26,0.39-0.37
									c-0.38,1.7-0.73,3.4-1.01,5.11c-0.08,0.47-0.12,1.03,0.24,1.34c0.57,0.48,1.39-0.16,1.85-0.75
									c0.42-0.55,0.84-1.09,1.26-1.63c0.01,0.28,0.01,0.57,0,0.9c-0.01,0.5,0.42,1.02,0.94,1.33c-0.38,1.47-0.73,2.94-0.29,4.36
									c0.35,0.11,0.67-0.2,0.9-0.48c0.73-0.88,1.45-1.76,2.18-2.64c0.05,0.08,0.1,0.15,0.15,0.23c-0.65,1.61-1.11,3.31-1.31,5.03
									c-0.08,0.67,0.03,1.57,0.7,1.69c0.46-0.81,0.91-1.62,1.37-2.43c-0.21,1.78-0.41,3.57-0.62,5.35
									c-0.11,0.92,0.1,2.22,1.03,2.2c1.2-3.29,1.93-4.69,3.12-7.98c0.27,1.97,0.26,3.26,0.17,4.69
									c-1.47,5.93-2.37,12.76,0.65,9.59c0.14,0.33,0.3,0.66,0.48,0.97c-0.44,2.83,1.07,4.33,3.84,1.56
									c-0.17,13.17,1.14,9.48,4.15,9.14c2.89,9.29,5.15,21.04-2.21,27.39c-3.41,2.94-8.59,4.4-11.59,7.35
									c-1.35,0.59-2.65,1.52-2.74,2.94c-0.06,0.96,0.47,1.86,0.99,2.67c0.79,1.25,1.64,2.54,2.92,3.28
									c0.79,0.46,1.67,0.67,2.58,0.73c5.48,1.38,11.08,2.63,16.68,1.99c6-0.69,12.09-4.05,14.26-9.69c0.85-2.2,2.7-5.34,4.58-3.91
									c3.58,5.83,2.3,14.16-2.85,18.65c-2.06,1.8-4.65,3.04-5.98,5.54c-0.66,1.23-0.82,2.71-0.27,3.99
									c0.8,1.83,2.49,2.07,4.07,2.23c8.5,0.87,17.1,0.73,25.56-0.41c6.25-0.84,13.51-3.19,15.23-9.25
									c0.99-3.49-0.24-7.16-0.63-10.77c-0.39-3.6,0.87-1.18,4.01-9.25c-2.54-16.82,1.6-26.37,6.86-31.64
									c0.28-0.04,0.56-0.08,0.83-0.12l-0.03,0.26c0.17,1.02,1.11,1.87,2.15,1.92s2.06-0.7,2.32-1.7c0.1-0.38,0.12-0.8,0.28-1.15
									c1.02-0.14,1.95-0.27,2.74-0.38c2.94,0.68,5.86,1.48,8.73,2.42c0.03-1.33,0.06-2.66,0.09-3.99c1.45-0.5,2.64,1.3,4.12,1.69
									c1.95,0.51,3.69-2.38,2.32-3.86c0.01-0.79,1.26-0.79,1.86-0.28c0.61,0.5,1.18,1.28,1.96,1.17c0.76-0.1,1.14-0.98,1.81-1.36
									c0.95-0.54,2.12,0.06,3.04,0.64c2.11,1.34,4.36,1.97,5.47,1.22c1.99-0.25-0.69-0.97-0.87-3.48
									c-0.02-0.31,2.05-1.65,2.25-1.91c0.01,0,0.02-0.01,0.03-0.01c-0.05,0.16-0.59,1.19-0.29,1.17c1.24-0.07,3.25,0.89,4.47,1.12
									c1.23,0.23,3.13-1.96,3.71-3.06c0.27-0.5,0.32-1.12,0.7-1.53c0.49-0.11,0.95-0.22,1.37-0.31c1.27,0.35,2.79,1.76,3.88,0.95
									c0.48-0.36,0.66-1.06,1.2-1.32c0.56-0.27,1.2,0.05,1.79,0.26c1.92,0.69,4.03,0.11,6.07-0.09c0.45-0.04,0.92-0.05,1.38-0.03
									c1.71,0.72,3.08,1.61,4.21,2.66c0.38,1.36-0.06,2.9,0.06,4.34c0.14,1.66,1.99,3.44,3.26,2.37c0.29-0.24,0.49-0.59,0.71-0.91
									c0.51,1.05,0.98,2.16,1.47,3.31c-1.22,3.82-0.56,8.21,1.81,11.44c0.7,0.14,0.88-0.93,1.3-1.51c0.39-0.54,1-0.6,1.59-0.38
									c0.62,1.04,1.27,2.07,1.94,3.08c0.13,1.14,0.18,2.29,0.87,3.18c0.7,0.91,1.94,1.32,2.96,1.88c0.52,0.61,1.05,1.2,1.6,1.78
									c0.23,0.86,0.44,2.14,1.24,1.83c0.09-0.11,0.17-0.22,0.23-0.34c1.28,1.21,2.65,2.34,4.11,3.34c1.57,1.08,3.33,2.13,4.1,3.85
									c1.3,2.9-0.9,6.22-3.52,8.08c-2.63,1.86-5.83,3.02-7.96,5.41c-2.14,2.39-2.49,6.77,0.38,8.24c0.58,0.3,1.23,0.44,1.87,0.58
									c9.47,2,19.17,2.98,28.87,2.92c4.35-0.03,9.1-0.43,12.23-3.37c1.82-1.72,2.84-4.08,3.62-6.43
									C458.89,417.82,459.64,410.47,458.77,403.3z"/>
							</g>
						</g>
					</g>
				</g>
			</g>
		</g>
	</g>
</g>
<g id="Layer_1_copy" class="st0">
	<g class="st2">
		<path class="st6" d="M239.85,323.34c0.03-0.7,0.06-1.41,0.1-2.11c-0.4-0.69-0.71-1.47-0.89-2.38c-0.04-0.22-0.08-0.43-0.12-0.65
			c-0.34,0.22-0.71,0.4-1.1,0.52c-0.58-3.1-0.46-6.32,0.3-9.39c0.09-1.24,0.29-2.48,0.58-3.69c-0.61,0.4-1.22,0.8-1.83,1.2
			c0.85-2.67,1.88-5.27,3.07-7.8c-0.42-0.9-0.69-1.88-0.8-2.86c-0.02-0.21-0.03-0.43-0.04-0.64c-0.53-1.29-0.7-2.97-0.58-4.55
			c-0.07,0.16-0.16,0.32-0.27,0.46c-0.37,0.48-1.2,0.71-1.55,0.21c-0.12-0.17-0.15-0.4-0.18-0.61c-0.08-0.6-0.15-1.2-0.23-1.8
			c-0.72-0.13-1.43-0.38-2.08-0.74c-0.43,0.97-0.72,2-0.84,3.06c-1.14-1.6-1.87-3.48-2.13-5.42c-1.1,1.88-1.49,5.03-1.39,7.1
			c-1.35,1.37-4.5-1.52-4.56-2.38c-0.1-1.49-0.44,2.67-0.4,4.16c-2.07,0.64-4.1-0.68-4.39-2.82c-1.24,1.3-2.09-2.04-3.33-0.74
			c-0.24-0.48-0.47-0.95-0.69-1.42c-0.49-0.32-0.95-0.69-1.36-1.08c-2.89-2.7-4.87-6.55-4.86-10.47c-0.11-0.03-0.23-0.07-0.34-0.09
			c-0.92-0.17-2.45-2.59-3.04-2.99l-1.58-0.79c-3.85-4.85-2.3-7.82-0.41-10.35c4-5.34,9.52-9.85,13.33-14.76
			c-2.16-0.49-3.17-3.58-1.72-5.25l-3.54,2.04c0.53-2.22-0.47-3.62,1.12-5.25c-2.61-0.79-0.79-4.69,1.13-6.62
			c1.13-1.14,1.69-3.24,1.42-4.64c-0.95,0.06-1.89,0.12-2.84,0.17c0.87-2.35,2.96-4.07,5.2-5.18c0.7-0.35,1.45-0.68,2.07-1.15
			l0.22-0.55c-0.4,0.08-0.79,0.17-1.19,0.25c0.91-2.25,2.62-4.15,4.74-5.32c-4.54-7.83-5.75-17.52-3.26-26.22
			c0.99-3.46,13.63,10.35,14.15,11.31c1.78,3.27,4.27,6.41,5.31,9.99c-0.09-0.19-0.06-0.43,0.07-0.59c0.08-0.1,0.16-0.18,0.23-0.24
			c0.16-1.1-0.08-2.3,0.24-3.39c0.07-0.24,0.22-0.51,0.47-0.53c0.27-0.02,0.46,0.26,0.58,0.51c0.41,0.83,0.79,1.68,1.17,2.52
			c1.12-0.83,2.4-1.54,3.4-2.2c-0.07,0.68-0.11,2.57-0.53,3.11c1.22-1.55,3.03-1.61,4.25-3.17c2.52-1.13-0.11,1.76,0.76,3.15
			c0.17-0.77,0.72-1.44,1.43-1.79c0.19-0.24,0.39-0.47,0.61-0.68c0.15-0.15,0.38-0.31,0.57-0.21c0.11,0.06,0.17,0.19,0.2,0.31
			c0.13,0.49,0.06,1.04,0.26,1.5c0.07,0.15,0.18,0.3,0.34,0.34c0.24,0.06,0.46-0.15,0.64-0.32c0.28-0.26,0.6-0.48,0.94-0.64
			c0.09-0.04,0.2-0.09,0.3-0.05c0.29,0.09,0.14,0.59,0.35,0.81c0.19,0.21,0.55,0.05,0.73-0.18c0.18-0.22,0.33-0.51,0.61-0.58
			c0.35-0.09,0.68,0.23,0.79,0.58c0.03,0.09,0.05,0.18,0.06,0.27c0.9-8.02,6.24-15.47,13.65-18.71c1.07,1.88,1.76,3.89,2.24,5.97
			c0.67,1.46,1.17,3,1.46,4.58c-0.24-0.05-0.47-0.09-0.71-0.14c0.08,0.64,0.15,1.27,0.21,1.91c0.69,1.3,1.36,2.61,1.99,3.94
			c-0.61,0.03-1.22-0.21-1.66-0.63c0,0,0,0,0,0c0.98,0.83,1.32,2.34,0.78,3.5c0.98,1.21,1.54,2.76,1.57,4.31
			c-0.57,0.09-1.16-0.2-1.48-0.67c0.77,1.64,1.14,3.46,1.05,5.27c-0.26-0.24-0.53-0.49-0.79-0.73c0.44,3.6,1.52,6.61,5.16,7.66
			c-0.43,0.02-0.55,0.16-0.49,0.38c0.73,0.51,1.45,1.03,2.18,1.54c1.03,0.73,2.19,1.79,1.85,3c-0.06,0.01-0.13,0.02-0.19,0.03
			c0.38,0.98,0.72,1.96,1.04,2.94c0.94,1.13,1.88,2.25,2.82,3.38c-0.48,0.31-1.05,0.47-1.62,0.48c0.19,0.63,0.38,1.26,0.56,1.89
			c1.24,2.5,1.96,5.39,4.27,6.86c-0.52,0.28-1.04,0.55-1.56,0.83c1.18,1.17,2.36,2.33,3.53,3.5c-0.57,0.02-1.15,0.03-1.72,0.05
			c0.11,0.17,0.21,0.34,0.32,0.51c1.67,1.2,3.33,2.4,5,3.61c-0.51,0.17-1.03,0.35-1.54,0.52c0.18,0.17,0.37,0.34,0.57,0.51
			c4.02,2.58,8.23,4.85,12.62,6.74c0.01,0.32,0.17,0.59,0.38,0.82c3.21,1.47,6.48,2.81,9.79,4.02c0.85,0.14,1.71,0.24,2.57,0.35
			c1.71-6.32,2.63-12.97,2.63-19.83c0-41.97-34.03-76-76-76s-76,34.03-76,76c0,38.52,28.67,70.33,65.83,75.3
			C239.78,324.57,239.84,323.72,239.85,323.34z"/>
		<path class="st6" d="M241.49,325.51c0.08,0.01,0.15,0.02,0.23,0.03c0.02-0.1,0.04-0.2,0.06-0.3
			C241.7,325.32,241.6,325.41,241.49,325.51z"/>
	</g>
</g>
</svg>
